<svg width="115" height="95" viewBox="0 0 115 95" fill="none" xmlns="http://www.w3.org/2000/svg">
<path d="M17.4077 94.8097H97.2682V18.7771H17.4077V94.8097Z" fill="#16316F"/>
<path fill-rule="evenodd" clip-rule="evenodd" d="M29.7306 48.3286C47.6769 41.7484 60.0604 24.7588 56.3503 17.6402C50.1291 18.8963 45.1052 22.3066 39.4817 24.58C41.5146 17.1024 41.5146 10.8813 40.7974 4.83887C34.8153 9.26483 25.6633 13.0341 22.6723 26.3739C17.5862 20.3329 11.6042 14.829 0 15.3665C2.63103 22.8441 10.6474 39.0557 22.253 41.3898L23.3895 39.0557C15.1947 35.108 9.15189 24.9391 4.66533 18.179C15.7321 21.229 20.638 30.2021 22.9706 31.339C25.5435 30.2628 27.3376 21.589 29.3716 19.6139C31.4653 17.6402 32.5414 14.6492 37.6864 10.5212C37.8064 19.9739 34.7561 24.939 33.3198 32.117L35.1739 33.1931C38.7038 28.1692 46.2417 26.3739 51.8045 23.0242C51.6247 32.6557 36.6695 41.0309 27.5175 47.0722L29.7306 48.3286Z" fill="#1DA838"/>
<path fill-rule="evenodd" clip-rule="evenodd" d="M87.8768 54.7891C94.098 47.79 99.1826 42.9445 109.532 39.8339C103.61 40.0141 105.762 29.7242 101.156 27.1521C95.1742 25.0589 92.961 29.9041 89.6717 35.1675C87.2184 38.9364 82.1338 41.6884 79.5014 36.8429C80.3992 31.5192 82.5531 26.9723 82.1338 20.8706C80.9986 8.68625 64.9562 1.274 54.9624 0H54.9096L52.9409 2.5654C67.5372 7.59074 74.4171 11.3587 78.6039 20.8706C78.3649 26.9723 76.81 31.8175 75.4933 37.0819C75.9729 39.5949 78.3649 41.6884 80.579 41.9275C84.3469 43.6029 86.8006 41.6884 88.5352 40.8513C93.4396 37.2621 94.2782 30.322 98.2848 30.322C101.576 32.656 101.337 36.4236 102.892 38.5774C95.8326 41.5096 90.7483 46.7727 85.9028 52.0372L87.8768 54.7891Z" fill="#9E441D"/>
<path fill-rule="evenodd" clip-rule="evenodd" d="M23.2698 94.8108C23.3301 93.9736 23.3893 93.0759 23.4496 92.1191C23.5089 91.1021 23.5089 89.8457 23.5089 88.2899C23.5089 86.7944 23.5089 85.5379 23.4496 84.522C23.3893 83.4443 23.3301 82.5469 23.2698 81.77C23.5692 81.77 23.8675 81.8292 24.1672 81.8292C24.4655 81.8896 24.7653 81.8896 25.0647 81.8896C25.3038 81.8896 25.6025 81.8896 25.9018 81.8292C26.2001 81.8292 26.4999 81.77 26.739 81.77C26.6798 82.5469 26.6195 83.505 26.6195 84.522C26.5602 85.5379 26.5602 86.7944 26.5602 88.2899C26.5602 89.9049 26.5602 91.2217 26.6195 92.1784C26.6195 93.1351 26.6798 94.0325 26.739 94.8108C26.4407 94.7501 26.1409 94.7501 25.8416 94.7501C25.5433 94.7501 25.3038 94.6909 25.0647 94.6909C24.7653 94.6909 24.4655 94.7501 24.2265 94.7501C23.9282 94.7501 23.6284 94.7501 23.2698 94.8108Z" fill="white"/>
<path fill-rule="evenodd" clip-rule="evenodd" d="M36.7297 87.3332C37.0883 87.2725 37.3881 87.0938 37.6272 86.8547C38.1054 86.4354 38.3447 85.8377 38.3447 84.9398C38.3447 84.2223 38.1054 83.7441 37.6864 83.3851C37.447 83.146 37.1486 82.9661 36.7297 82.9069V81.77H36.8492C38.3447 81.77 39.421 82.0095 40.1989 82.4877C40.9166 83.0265 41.2766 83.7441 41.2766 84.7611C41.2766 85.6575 40.9166 86.3761 40.1989 86.9139C39.5406 87.4528 38.5246 87.7521 37.2079 87.8113V87.9309C38.7034 87.9309 39.7797 88.17 40.5579 88.7088C41.2766 89.2476 41.6352 90.0848 41.6352 91.161C41.6352 92.298 41.2162 93.1954 40.3791 93.8537C39.5406 94.5111 38.4051 94.8108 36.8492 94.8108H36.7297V93.7342C37.1486 93.6146 37.5076 93.3742 37.806 93.0759C38.2855 92.6565 38.4643 91.9997 38.4643 91.1022C38.4643 90.2636 38.2252 89.6066 37.806 89.1874C37.5076 88.889 37.1486 88.7088 36.7297 88.5893V87.3332ZM35.1142 87.4528C35.1736 87.4528 35.2342 87.4528 35.2931 87.513H35.5336C35.9514 87.513 36.3708 87.4528 36.7297 87.3332V88.5893C36.43 88.529 36.0714 88.529 35.7123 88.529H35.3537H35.1142V90.9826C35.1142 91.4608 35.1142 91.8801 35.1736 92.3582V93.674C35.3537 93.7342 35.4733 93.7342 35.5928 93.7935H35.8926C36.1909 93.7935 36.4903 93.7342 36.7297 93.7342V94.8108C36.3708 94.8108 35.8319 94.8108 35.1736 94.7501H33.3797C33.1406 94.7501 32.7213 94.7501 32.1825 94.8108H32.0037C32.063 94.272 32.1232 93.6146 32.1232 92.896C32.1825 92.2387 32.1825 91.2217 32.1825 89.9653V88.2899C32.1825 86.3158 32.1825 84.9398 32.1232 84.0424C32.1232 83.2052 32.063 82.4273 32.0037 81.77H33.4992C33.9185 81.8292 34.2771 81.8292 34.5166 81.8292C34.8149 81.8292 35.2342 81.8292 35.7123 81.77H36.7297V82.9069C36.4903 82.8467 36.1909 82.786 35.8926 82.786H35.6531C35.5928 82.8467 35.414 82.8467 35.2342 82.8467C35.1736 83.146 35.1736 83.505 35.1142 83.9229V85.2396V87.4528Z" fill="white"/>
<path fill-rule="evenodd" clip-rule="evenodd" d="M50.1294 81.5903V81.53H50.5486C50.6682 81.5903 50.7877 81.5903 50.9665 81.5903C51.086 81.5903 51.2056 81.5903 51.3251 81.53H51.6852C52.462 83.6247 53.3595 85.7775 54.2573 87.9917C55.214 90.2048 56.231 92.4782 57.2484 94.811C57.0089 94.811 56.7096 94.7506 56.4701 94.7506H55.5134H54.616C54.3162 94.7506 54.0771 94.811 53.7788 94.811C53.6592 94.3324 53.4791 93.7936 53.3003 93.2551C53.0601 92.7173 52.8207 91.9987 52.462 90.9827C52.1637 90.9827 51.864 90.9224 51.5657 90.9224H50.1294V89.7263H50.7877H51.9246C51.6249 88.9484 51.3858 88.2308 51.086 87.4529C50.7877 86.7353 50.488 86.0176 50.1294 85.3593V85.4185L50.1294 81.5903ZM44.5059 94.8109C45.463 92.7766 46.4207 90.6237 47.3775 88.4095C48.2752 86.2571 49.2319 83.9833 50.1294 81.5903L50.1294 85.4185C49.7708 86.0769 49.471 86.7352 49.1727 87.4529C48.873 88.1704 48.5736 88.9484 48.3341 89.7263H48.3948L50.1294 89.7263V90.9224L48.6339 90.9224C48.3341 90.9224 48.0358 90.9827 47.7364 90.9827C47.3774 92.059 47.078 92.8369 46.8993 93.3746C46.6598 93.9134 46.4799 94.3916 46.3012 94.8109C46.1213 94.8109 46.0014 94.7506 45.8226 94.7506H45.463C45.2842 94.7506 44.9844 94.7506 44.6258 94.8109L44.5059 94.8109Z" fill="white"/>
<path fill-rule="evenodd" clip-rule="evenodd" d="M59.9402 94.8108C60.1204 93.8537 60.24 92.9563 60.3595 92.298C60.4791 91.5803 60.5986 91.1022 60.5986 90.8025L61.9143 81.77C62.0338 81.77 62.1534 81.77 62.3332 81.8292H62.7514H63.231C63.4098 81.77 63.5293 81.77 63.6489 81.77C64.3665 83.2655 65.1444 84.7611 65.9224 86.2566C66.7002 87.7521 67.4781 89.2476 68.3153 90.6829C69.0935 89.2476 69.87 87.8113 70.648 86.3158C71.4259 84.8806 72.2041 83.3248 72.9214 81.77C73.0413 81.77 73.2201 81.77 73.3407 81.8292H73.8192H74.2974C74.4762 81.77 74.5957 81.77 74.7759 81.77L75.9125 90.8627C76.0324 91.8801 76.1519 92.7172 76.2715 93.2546C76.3307 93.8537 76.4513 94.3323 76.5711 94.8108C76.2111 94.7502 75.9124 94.7502 75.613 94.7502C75.3739 94.7502 75.0756 94.6909 74.8352 94.6909C74.5957 94.6909 74.2974 94.7502 74.0583 94.7502C73.7586 94.7502 73.4603 94.7502 73.1609 94.8108V94.6306C73.1002 93.2546 73.0413 92.4781 72.9806 92.1191L72.3829 86.0175C71.6047 87.3935 70.8282 88.8288 70.1091 90.2636C69.3326 91.6999 68.5548 93.2546 67.7764 94.8108C67.7176 94.8108 67.7176 94.8108 67.6569 94.7501H67.3576H67.1181C67.0592 94.8108 66.9985 94.8108 66.9985 94.8108C66.1614 93.2546 65.4438 91.7591 64.6658 90.3846C63.9483 88.9483 63.1703 87.6326 62.4528 86.3158L61.9746 90.3243V90.4438C61.7355 92.537 61.6159 93.9736 61.6159 94.8108C61.4357 94.7501 61.3162 94.7501 61.136 94.7501C61.0165 94.7501 60.8969 94.6909 60.7774 94.6909C60.6578 94.6909 60.5383 94.7501 60.3595 94.7501C60.24 94.7501 60.1204 94.7502 59.9402 94.8108Z" fill="white"/>
<path fill-rule="evenodd" clip-rule="evenodd" d="M84.8857 81.5903V81.53H85.305C85.4245 81.5903 85.5441 81.5903 85.7228 81.5903C85.8424 81.5903 85.9619 81.5903 86.0815 81.53H86.4415C87.2184 83.6247 88.1158 85.7775 89.0133 87.9917C89.9699 90.2048 90.9873 92.4782 92.0043 94.811C91.7652 94.811 91.4655 94.7506 91.2264 94.7506H90.2697H89.3722C89.0725 94.7506 88.8334 94.811 88.5351 94.811C88.4156 94.3324 88.2353 93.7936 88.0566 93.2551C87.8161 92.7173 87.577 91.9987 87.2184 90.9827C86.92 90.9827 86.6203 90.9224 86.3206 90.9224H84.8857V89.7263H85.5441H86.6806C86.3812 88.9484 86.1421 88.2308 85.8424 87.4529C85.5441 86.7353 85.2443 86.0176 84.8857 85.3593V85.4185V81.5903ZM79.2622 94.8109C80.2189 92.7766 81.1771 90.6237 82.1337 88.4095C83.0311 86.2571 83.9879 83.9833 84.8857 81.5903V85.4185C84.5267 86.0769 84.2273 86.7352 83.929 87.4529C83.6292 88.1704 83.3295 88.9484 83.0904 89.7263H83.151L84.8857 89.7263V90.9224L83.3901 90.9224C83.0904 90.9224 82.7921 90.9827 82.4923 90.9827C82.1337 92.059 81.8339 92.8369 81.6555 93.3746C81.4161 93.9134 81.2363 94.3916 81.0575 94.8109C80.8773 94.8109 80.7577 94.7506 80.579 94.7506H80.2189C80.0401 94.7506 79.7408 94.7506 79.3818 94.8109L79.2622 94.8109Z" fill="white"/>
<path fill-rule="evenodd" clip-rule="evenodd" d="M112.223 56.1051C107.498 59.9333 103.011 62.5065 96.3115 64.002C85.0649 63.1638 84.885 53.5334 76.5703 54.3705C70.7077 54.1906 59.7606 65.4976 56.3506 64.002C51.2067 66.754 43.1299 52.2167 38.1649 52.875C34.1568 50.9601 25.6632 57.3615 20.458 64.2411L22.492 66.3347C26.5004 61.8481 32.602 56.1051 35.7126 56.2853C41.8143 54.7898 45.5836 67.4109 56.1111 68.2495C66.8796 65.9154 71.4253 57.7809 76.8094 58.02C81.9543 56.7032 85.5434 67.4109 96.3115 67.6504C105.046 65.9154 109.532 61.6683 114.915 57.7809L112.223 56.1051Z" fill="#0093DD"/>
</svg>
